# xmcd
#
# Track frame offsets: 
#        150
#        9947
#        32527
#        48815
#        62232
#        71065
#        87207
#        97260
#        115132
#        127770
#        146332
#
# Disc length: 2130 seconds
#
# Revision: 0
# Processed by: cddbd v1.5.2PL0 Copyright (c) Steve Scherf et al.
# Submitted via: ExactAudioCopy v0.99pb3
#
DISCID=8908500b
DTITLE=Mark Goodwin - Let Me Down Easy 
DYEAR=1996
DGENRE=Blues
TTITLE0=Boogie Woogie All Night Long
TTITLE1=Let Me Down Easy 
TTITLE2=I'd Rather Be Blind
TTITLE3=Same Old Blues
TTITLE4=Firehouse Blues
TTITLE5=Cherry Red
TTITLE6=You Upsets Me
TTITLE7=How Many More Years
TTITLE8=Ain't Nobody Here But Us Chickens
TTITLE9=The Midnight Hour
TTITLE10=Hey Little Girl
EXTD=
EXTT0=
EXTT1=
EXTT2=
EXTT3=
EXTT4=
EXTT5=
EXTT6=
EXTT7=
EXTT8=
EXTT9=
EXTT10=
PLAYORDER=
